<svg class="animated" id="freepik_stories-lawyer" xmlns="http://www.w3.org/2000/svg" viewBox="0 0 500 500" version="1.1" xmlns:xlink="http://www.w3.org/1999/xlink" xmlns:svgjs="http://svgjs.com/svgjs"><style>svg#freepik_stories-lawyer:not(.animated) .animable {opacity: 0;}svg#freepik_stories-lawyer.animated #freepik--background-simple--inject-62 {animation: 1s 1 forwards cubic-bezier(.36,-0.01,.5,1.38) zoomOut,1.5s Infinite  linear wind;animation-delay: 0s,1s;}svg#freepik_stories-lawyer.animated #freepik--Plants--inject-62 {animation: 1.5s Infinite  linear wind;animation-delay: 0s;}svg#freepik_stories-lawyer.animated #freepik--Balance--inject-62 {animation: 1.0s 1 forwards cubic-bezier(.36,-0.01,.5,1.38) zoomOut,1.5s Infinite  linear floating;animation-delay: 0s,1s;}svg#freepik_stories-lawyer.animated #freepik--Character--inject-62 {animation: 1s 1 forwards cubic-bezier(.36,-0.01,.5,1.38) lightSpeedLeft;animation-delay: -0.1s;opacity: 0}svg#freepik_stories-lawyer.animated #freepik--Floor--inject-62 {animation: 1.6s 1 forwards linear fadeIn;animation-delay: 0s;}            @keyframes zoomOut {                0% {                    opacity: 0;                    transform: scale(1.5);                }                100% {                    opacity: 1;                    transform: scale(1);                }            }                    @keyframes wind {                0% {                    transform: rotate( 0deg );                }                25% {                    transform: rotate( 1deg );                }                75% {                    transform: rotate( -1deg );                }            }                    @keyframes floating {                0% {                    opacity: 1;                    transform: translateY(0px);                }                50% {                    transform: translateY(-10px);                }                100% {                    opacity: 1;                    transform: translateY(0px);                }            }                    @keyframes lightSpeedLeft {              from {                transform: translate3d(-50%, 0, 0) skewX(20deg);                opacity: 0;              }              60% {                transform: skewX(-10deg);                opacity: 1;              }              80% {                transform: skewX(2deg);              }              to {                opacity: 1;                transform: translate3d(0, 0, 0);              }            }                    @keyframes fadeIn {                0% {                    opacity: 0;                }                100% {                    opacity: 1;                }            }        </style><g id="freepik--background-simple--inject-62" class="animable" style="transform-origin: 244.374px 247.591px;"><path d="M208.87,454.86s77.87,14.07,142.35-39.53S437.28,273,456.66,201.5,446.13,65.57,385.8,43.9,296.21,73.74,219.63,88.69,120.38,96,64.27,150.31,15,309.83,78.9,377.92,208.87,454.86,208.87,454.86Z" style="fill: #3F4774; transform-origin: 244.374px 247.591px;" id="elz7pmw7mho89" class="animable"></path><g id="els3t57yzedr9" class=""><path d="M208.87,454.86s77.87,14.07,142.35-39.53S437.28,273,456.66,201.5,446.13,65.57,385.8,43.9,296.21,73.74,219.63,88.69,120.38,96,64.27,150.31,15,309.83,78.9,377.92,208.87,454.86,208.87,454.86Z" style="fill: rgb(255, 255, 255); opacity: 0.8; transform-origin: 244.374px 247.591px;" class="animable" id="elby35ot6vmrd"></path></g></g><g id="freepik--Plants--inject-62" class="animable" style="transform-origin: 268.605px 309.265px;"><path d="M297.85,195s0-6.74-9.44-16.18S272.9,164,272.9,164s-4.73,15.51,4,24.95,20.91,18.21,20.91,18.21Z" style="fill: #3F4774; transform-origin: 284.735px 185.58px;" id="elk1kkojcq4mm" class="animable"></path><path d="M284.14,237.14s0-6.75-9.44-16.19-15.51-14.84-15.51-14.84-4.72,15.52,4.05,25,20.9,18.2,20.9,18.2Z" style="fill: #3F4774; transform-origin: 271.031px 227.71px;" id="elkxjg1l736q" class="animable"></path><path d="M297.25,206.51s.72-6.71,11.1-15.1,17-13.11,17-13.11,3.06,15.92-6.66,24.38S296,218.58,296,218.58Z" style="fill: #3F4774; transform-origin: 310.903px 198.44px;" id="el8nu7gdukimk" class="animable"></path><path d="M280.7,256.24s1.41-6.59,12.62-13.84,18.28-11.26,18.28-11.26,1.36,16.15-9.19,23.55-24.25,13.42-24.25,13.42Z" style="fill: #3F4774; transform-origin: 294.909px 249.625px;" id="eleav5ycaro1d" class="animable"></path><path d="M283.81,310.47s0-6.74,9.44-16.18,15.51-14.84,15.51-14.84,4.72,15.51-4,24.95-20.91,18.21-20.91,18.21Z" style="fill: #3F4774; transform-origin: 296.923px 301.03px;" id="eljchpg1qm1sb" class="animable"></path><path d="M283.65,323.71s1-6.68-7-17.36-13.25-16.89-13.25-16.89-6.87,14.68.46,25.27,18.11,21,18.11,21Z" style="fill: #3F4774; transform-origin: 272.084px 312.595px;" id="elt08579su0v" class="animable"></path><path d="M274.35,362.94s0-6.75,9.44-16.19,15.51-14.83,15.51-14.83,4.72,15.51-4.05,24.95-20.9,18.2-20.9,18.2Z" style="fill: #3F4774; transform-origin: 287.459px 353.495px;" id="eliz3injzs94" class="animable"></path><path d="M280.65,398.5s-1.71-6.52,5-18.05,11.25-18.28,11.25-18.28,8.5,13.81,2.41,25.16-15.62,22.91-15.62,22.91Z" style="fill: #3F4774; transform-origin: 290.981px 386.205px;" id="el8ckwuwa4hvr" class="animable"></path><path d="M298.7,193.29a192.67,192.67,0,0,1-2.58,20.94c-3.74,19.28-13.07,31.72-16.8,49.14s7,39.85,4.11,62.22-11.57,34.81-9.08,49.74,15.55,55.36,15.55,55.36" style="fill: none; stroke: rgb(38, 50, 56); stroke-linecap: round; stroke-linejoin: round; stroke-width: 0.5px; transform-origin: 286.303px 311.99px;" id="elio207hb40xm" class="animable"></path><line x1="297.16" y1="210.99" x2="307.33" y2="203.18" style="fill: none; stroke: rgb(38, 50, 56); stroke-linecap: round; stroke-linejoin: round; stroke-width: 0.5px; transform-origin: 302.245px 207.085px;" id="el2ewrrxejbgf" class="animable"></line><line x1="297.63" y1="202" x2="293.37" y2="194.43" style="fill: none; stroke: rgb(38, 50, 56); stroke-linecap: round; stroke-linejoin: round; stroke-width: 0.5px; transform-origin: 295.5px 198.215px;" id="elnzpxdgleze" class="animable"></line><path d="M279.89,262.57s8.52-6.39,17.27-12.78" style="fill: none; stroke: rgb(38, 50, 56); stroke-linecap: round; stroke-linejoin: round; stroke-width: 0.5px; transform-origin: 288.525px 256.18px;" id="el2l6kqnn2oru" class="animable"></path><path d="M284.14,249.27s-7.09-13.91-15.14-23.14" style="fill: none; stroke: rgb(38, 50, 56); stroke-linecap: round; stroke-linejoin: round; stroke-width: 0.5px; transform-origin: 276.57px 237.7px;" id="elmms1ejso6r" class="animable"></path><path d="M284.15,320.07a105.21,105.21,0,0,1,18.22-24.38" style="fill: none; stroke: rgb(38, 50, 56); stroke-linecap: round; stroke-linejoin: round; stroke-width: 0.5px; transform-origin: 293.26px 307.88px;" id="elof69qkqtzf" class="animable"></path><path d="M282.49,329.53A119.38,119.38,0,0,0,273.26,312c-5-7.33-5.68-8.28-5.68-8.28" style="fill: none; stroke: rgb(38, 50, 56); stroke-linecap: round; stroke-linejoin: round; stroke-width: 0.5px; transform-origin: 275.035px 316.625px;" id="el4ualeoijr4x" class="animable"></path><path d="M274.35,375.33A112.93,112.93,0,0,1,282,359.82a99.35,99.35,0,0,1,9.93-13" style="fill: none; stroke: rgb(38, 50, 56); stroke-linecap: round; stroke-linejoin: round; stroke-width: 0.5px; transform-origin: 283.14px 361.075px;" id="elajcn9gaw75" class="animable"></path><path d="M283.72,410.24s-1-8.07,2.56-14.93,7.57-15.86,9.22-19.41" style="fill: none; stroke: rgb(38, 50, 56); stroke-linecap: round; stroke-linejoin: round; stroke-width: 0.5px; transform-origin: 289.545px 393.07px;" id="elvejn3e3jia" class="animable"></path><path d="M236,285.11s-.73-4.23,4.17-11.17,8.11-11,8.11-11,4.65,9.21.17,16.08a104.93,104.93,0,0,1-11.13,13.69Z" style="fill: #3F4774; transform-origin: 243.18px 277.825px;" id="elam6blzujqsb" class="animable"></path><path d="M249.19,310s-.73-4.23,4.16-11.17,8.12-11,8.12-11,4.64,9.21.17,16.09a105.26,105.26,0,0,1-11.13,13.68Z" style="fill: #3F4774; transform-origin: 256.367px 302.715px;" id="ellvqmo98agfq" class="animable"></path><path d="M237.64,292.25s-1.17-4.13-8.6-8.26S217,277.61,217,277.61s-.19,10.31,6.82,14.57a105.51,105.51,0,0,0,16,7.5Z" style="fill: #3F4774; transform-origin: 228.41px 288.645px;" id="elwvuiiavtgrq" class="animable"></path><path d="M253.42,321.64s-1.6-4-9.42-7.31-12.68-5.08-12.68-5.08.9,10.28,8.32,13.77a106.13,106.13,0,0,0,16.67,5.79Z" style="fill: #3F4774; transform-origin: 243.815px 319.03px;" id="elnwiu0tjtii" class="animable"></path><path d="M257.36,356s-.73-4.22-7.68-9.12-11.34-7.62-11.34-7.62-1.27,10.24,5.25,15.21a105.3,105.3,0,0,0,15.09,9.15Z" style="fill: #3F4774; transform-origin: 248.46px 351.44px;" id="elarvmkzlen3k" class="animable"></path><path d="M258.89,364.27s-1.32-4.09,2.54-11.66,6.47-12,6.47-12,5.9,8.46,2.45,15.89a105.55,105.55,0,0,1-9.07,15.13Z" style="fill: #3F4774; transform-origin: 265.052px 356.12px;" id="eld04dt7o0akc" class="animable"></path><path d="M270.74,398.38s.49-4.27,7.15-9.55,10.88-8.25,10.88-8.25,1.86,10.15-4.37,15.48a105.72,105.72,0,0,1-14.54,10Z" style="fill: #3F4774; transform-origin: 279.445px 393.32px;" id="elqf9am4pne2m" class="animable"></path><path d="M269,387.86s-.73-4.23-7.68-9.13S250,371.11,250,371.11s-1.28,10.24,5.24,15.21a105.3,105.3,0,0,0,15.09,9.15Z" style="fill: #3F4774; transform-origin: 260.114px 383.29px;" id="elbhwhcsa4jc5" class="animable"></path><path d="M268.9,410.84s.36-4.27-5.12-10.77-9-10.24-9-10.24-3.82,9.58,1.23,16a105.51,105.51,0,0,0,12.27,12.67Z" style="fill: #3F4774; transform-origin: 261.15px 404.165px;" id="el7db36jryqm5" class="animable"></path><path d="M235.3,284.12A123.12,123.12,0,0,0,239.19,297c4.44,11.69,11.64,18.47,15.87,29s-.05,25.75,4.18,39.46,11,20.58,11.09,30.21-3.74,36.4-3.74,36.4" style="fill: none; stroke: rgb(38, 50, 56); stroke-linecap: round; stroke-linejoin: round; stroke-width: 0.5px; transform-origin: 252.816px 358.095px;" id="elescbqzr1kpt" class="animable"></path><line x1="238.19" y1="295.05" x2="230.96" y2="291.26" style="fill: none; stroke: rgb(38, 50, 56); stroke-linecap: round; stroke-linejoin: round; stroke-width: 0.5px; transform-origin: 234.575px 293.155px;" id="ell2diamna4nb" class="animable"></line><line x1="236.91" y1="289.46" x2="238.76" y2="284.25" style="fill: none; stroke: rgb(38, 50, 56); stroke-linecap: round; stroke-linejoin: round; stroke-width: 0.5px; transform-origin: 237.835px 286.855px;" id="elb7noktf0cw" class="animable"></line><path d="M254.62,325.52s-6-3.08-12.22-6.14" style="fill: none; stroke: rgb(38, 50, 56); stroke-linecap: round; stroke-linejoin: round; stroke-width: 0.5px; transform-origin: 248.51px 322.45px;" id="elmv6356qzzjb" class="animable"></path><path d="M250.51,317.64s2.93-9.49,7-16.15" style="fill: none; stroke: rgb(38, 50, 56); stroke-linecap: round; stroke-linejoin: round; stroke-width: 0.5px; transform-origin: 254.01px 309.565px;" id="elzokvipqchp" class="animable"></path><path d="M258.19,362a67,67,0,0,0-14.07-13.31" style="fill: none; stroke: rgb(38, 50, 56); stroke-linecap: round; stroke-linejoin: round; stroke-width: 0.5px; transform-origin: 251.155px 355.345px;" id="elc60n2jh9q8i" class="animable"></path><path d="M260.26,367.79a75.49,75.49,0,0,1,3.88-12c2.32-5.14,2.66-5.81,2.66-5.81" style="fill: none; stroke: rgb(38, 50, 56); stroke-linecap: round; stroke-linejoin: round; stroke-width: 0.5px; transform-origin: 263.53px 358.885px;" id="elaojuooajg2a" class="animable"></path><path d="M270,402.93s4.79-5.87,7.77-8.07a41,41,0,0,0,5.05-4.39" style="fill: none; stroke: rgb(38, 50, 56); stroke-linecap: round; stroke-linejoin: round; stroke-width: 0.5px; transform-origin: 276.41px 396.7px;" id="elgnb6b9a153v" class="animable"></path><path d="M270.33,395.63a71.07,71.07,0,0,0-6.49-8.9,63.65,63.65,0,0,0-7.64-7.08" style="fill: none; stroke: rgb(38, 50, 56); stroke-linecap: round; stroke-linejoin: round; stroke-width: 0.5px; transform-origin: 263.265px 387.64px;" id="elv5rb2xefr3" class="animable"></path><path d="M268.24,418.54a18.4,18.4,0,0,0-3.22-9.09c-3-3.92-6.47-9.12-7.89-11.17" style="fill: none; stroke: rgb(38, 50, 56); stroke-linecap: round; stroke-linejoin: round; stroke-width: 0.5px; transform-origin: 262.685px 408.41px;" id="ely5f1qtde21c" class="animable"></path><path d="M417,343.12s3.16-3.3,3-12.33-.64-14.51-.64-14.51-9.56,5.37-9.7,14.08a111.92,111.92,0,0,0,1.69,18.69Z" style="fill: #3F4774; transform-origin: 414.833px 332.665px;" id="el0y6dznuubn3" class="animable"></path><path d="M390.63,357.28s3.16-3.3,3-12.33-.63-14.51-.63-14.51-9.57,5.37-9.7,14.08A111.92,111.92,0,0,0,385,363.21Z" style="fill: #3F4774; transform-origin: 388.468px 346.825px;" id="elvuh1newohfh" class="animable"></path><path d="M411.37,348.45s3.49-2.94,12.49-2.18,14.44,1.55,14.44,1.55-6,9.21-14.67,8.79a112.29,112.29,0,0,1-18.54-2.86Z" style="fill: #3F4774; transform-origin: 421.695px 351.384px;" id="elfweb7ft7j4p" class="animable"></path><path d="M380,365s3.78-2.56,12.65-.86,14.2,3.06,14.2,3.06-6.9,8.53-15.51,7.21a112.55,112.55,0,0,1-18.14-4.8Z" style="fill: #3F4774; transform-origin: 390.025px 369.053px;" id="el76pphtpsexu" class="animable"></path><path d="M356.13,393s3.16-3.29,12.19-3.49,14.52,0,14.52,0-4.95,9.78-13.65,10.29a112.09,112.09,0,0,1-18.74-.89Z" style="fill: #3F4774; transform-origin: 366.645px 394.648px;" id="elr9pboq5yeon" class="animable"></path><path d="M349.86,399.34s3.59-2.81,4.68-11.78S356,373.11,356,373.11s-10.23,3.95-11.61,12.56a112.57,112.57,0,0,0-1,18.73Z" style="fill: #3F4774; transform-origin: 349.67px 388.755px;" id="elob18c3cd828" class="animable"></path><path d="M326.94,414.15s3.16-3.3,12.19-3.49,14.53,0,14.53,0-5,9.78-13.66,10.29a112.18,112.18,0,0,1-18.74-.89Z" style="fill: #3F4774; transform-origin: 337.46px 415.8px;" id="elhs10yo1j3zr" class="animable"></path><path d="M313.37,434.48s2.22-4,10.91-6.46,14.05-3.67,14.05-3.67-2.31,10.72-10.6,13.42a112.75,112.75,0,0,1-18.35,3.88Z" style="fill: #3F4774; transform-origin: 323.855px 433px;" id="elzlgerzqcbi" class="animable"></path><path d="M418.27,342.67a128.49,128.49,0,0,1-11.07,9c-10.85,7.67-21.23,9.38-31.21,16.15s-15.25,22.73-27.12,32.32-21.95,11.59-27.73,20-18.32,34.33-18.32,34.33" style="fill: none; stroke: rgb(38, 50, 56); stroke-linecap: round; stroke-linejoin: round; stroke-width: 0.5px; transform-origin: 360.545px 398.57px;" id="elpvz9chwsd5" class="animable"></path><line x1="409.23" y1="350.6" x2="417.86" y2="351.55" style="fill: none; stroke: rgb(38, 50, 56); stroke-linecap: round; stroke-linejoin: round; stroke-width: 0.5px; transform-origin: 413.545px 351.075px;" id="elm2w4a9wxlwb" class="animable"></line><line x1="413.67" y1="346.43" x2="415.13" y2="340.73" style="fill: none; stroke: rgb(38, 50, 56); stroke-linecap: round; stroke-linejoin: round; stroke-width: 0.5px; transform-origin: 414.4px 343.58px;" id="ela227wv1f2sj" class="animable"></line><path d="M376.64,367.71s7.15.87,14.42,1.84" style="fill: none; stroke: rgb(38, 50, 56); stroke-linecap: round; stroke-linejoin: round; stroke-width: 0.5px; transform-origin: 383.85px 368.63px;" id="el8iokv76vptt" class="animable"></path><path d="M385,363.21s3-10.12,3.43-18.4" style="fill: none; stroke: rgb(38, 50, 56); stroke-linecap: round; stroke-linejoin: round; stroke-width: 0.5px; transform-origin: 386.715px 354.01px;" id="el1gebh9slbrw" class="animable"></path><path d="M351.8,397.79a71.43,71.43,0,0,1,20.31-3.37" style="fill: none; stroke: rgb(38, 50, 56); stroke-linecap: round; stroke-linejoin: round; stroke-width: 0.5px; transform-origin: 361.955px 396.105px;" id="elrpiu3jmdoze" class="animable"></path><path d="M346.56,401.64a79.69,79.69,0,0,0,3.69-12.87c1-5.91,1.11-6.71,1.11-6.71" style="fill: none; stroke: rgb(38, 50, 56); stroke-linecap: round; stroke-linejoin: round; stroke-width: 0.5px; transform-origin: 348.96px 391.85px;" id="elsz59yklb3kr" class="animable"></path><path d="M321.14,420.2a76.06,76.06,0,0,1,11-4,67.4,67.4,0,0,1,11-1.71" style="fill: none; stroke: rgb(38, 50, 56); stroke-linecap: round; stroke-linejoin: round; stroke-width: 0.5px; transform-origin: 332.14px 417.345px;" id="elmuxkcimy5oh" class="animable"></path><path d="M309.38,441.65a19.53,19.53,0,0,1,8.24-6.1c4.94-1.69,11.12-4.2,13.59-5.16" style="fill: none; stroke: rgb(38, 50, 56); stroke-linecap: round; stroke-linejoin: round; stroke-width: 0.5px; transform-origin: 320.295px 436.02px;" id="elujlto17k4fe" class="animable"></path><path d="M344.66,358.19s1.62-2.41,7.26-3.51,9.11-1.57,9.11-1.57-2,6.67-7.44,7.94a71.68,71.68,0,0,1-11.85,1.47Z" style="fill: #3F4774; transform-origin: 351.385px 357.815px;" id="elf74bk4ya4st" class="animable"></path><path d="M339.42,376.52s1.62-2.4,7.27-3.51,9.11-1.56,9.11-1.56-2.05,6.67-7.45,7.94a71.56,71.56,0,0,1-11.85,1.47Z" style="fill: #3F4774; transform-origin: 346.15px 376.155px;" id="elp9svhlaqdrq" class="animable"></path><path d="M342.11,362.43s1.36-2.57-.34-8.06-2.91-8.77-2.91-8.77-4.92,4.95-3.49,10.31a71.89,71.89,0,0,0,4.29,11.14Z" style="fill: #3F4774; transform-origin: 338.867px 356.325px;" id="eloarsywtoa9" class="animable"></path><path d="M336.05,384.18s1.09-2.7-1.17-8-3.82-8.42-3.82-8.42-4.38,5.44-2.39,10.62A71.22,71.22,0,0,0,334.11,389Z" style="fill: #3F4774; transform-origin: 332.232px 378.38px;" id="elfrg7qu383du" class="animable"></path><path d="M321.9,402.8s1.62-2.41.52-8.05-2-9-2-9-5.42,4.4-4.56,9.88A71.23,71.23,0,0,0,319,407.13Z" style="fill: #3F4774; transform-origin: 319.285px 396.44px;" id="elilu0dtot07h" class="animable"></path><path d="M318.77,407.56s1.26-2.61,6.69-4.5,8.8-2.85,8.8-2.85-1.08,6.9-6.25,8.92a70.82,70.82,0,0,1-11.51,3.14Z" style="fill: #3F4774; transform-origin: 325.38px 406.24px;" id="ell1la9oseswq" class="animable"></path><path d="M308.59,429.78s2.24-1.86,8-1.32,9.18,1.06,9.18,1.06-3.84,5.83-9.38,5.52a71,71,0,0,1-11.78-1.93Z" style="fill: #3F4774; transform-origin: 315.19px 431.707px;" id="el1fm32ea92jx" class="animable"></path><path d="M312.66,423.82s1.62-2.41.52-8.06-2-9-2-9-5.42,4.41-4.56,9.89a71.23,71.23,0,0,0,3.09,11.53Z" style="fill: #3F4774; transform-origin: 310.045px 417.47px;" id="ela1pzwq28n08" class="animable"></path><path d="M301.85,435s2.18-1.92,2.55-7.66.38-9.23.38-9.23-6.36,2.89-6.92,8.41a72,72,0,0,0,.07,11.94Z" style="fill: #3F4774; transform-origin: 301.213px 428.285px;" id="elfsj534a2u4" class="animable"></path><path d="M344.77,357.36a81.43,81.43,0,0,0-4.11,8.1c-3.31,7.79-3,14.48-5.83,21.59s-12.08,12.56-16.43,21.24-4.24,15.22-8.72,19.95-18.87,16-18.87,16" style="fill: none; stroke: rgb(38, 50, 56); stroke-linecap: round; stroke-linejoin: round; stroke-width: 0.5px; transform-origin: 317.79px 400.8px;" id="elmwb314odgis" class="animable"></path><line x1="341.06" y1="364.05" x2="339.31" y2="358.82" style="fill: none; stroke: rgb(38, 50, 56); stroke-linecap: round; stroke-linejoin: round; stroke-width: 0.5px; transform-origin: 340.185px 361.435px;" id="elala5g8bg604" class="animable"></line><line x1="343.06" y1="360.73" x2="346.4" y2="359.05" style="fill: none; stroke: rgb(38, 50, 56); stroke-linecap: round; stroke-linejoin: round; stroke-width: 0.5px; transform-origin: 344.73px 359.89px;" id="elsk9o2r1kuzf" class="animable"></line><path d="M334.82,386.63s-1.5-4.33-3.09-8.72" style="fill: none; stroke: rgb(38, 50, 56); stroke-linecap: round; stroke-linejoin: round; stroke-width: 0.5px; transform-origin: 333.275px 382.27px;" id="eliljspbh6b7" class="animable"></path><path d="M336.5,380.86a58.39,58.39,0,0,1,11-4.62" style="fill: none; stroke: rgb(38, 50, 56); stroke-linecap: round; stroke-linejoin: round; stroke-width: 0.5px; transform-origin: 342px 378.55px;" id="elu1y114bgldr" class="animable"></path><path d="M319.47,406.15a45.26,45.26,0,0,0-.64-13.09" style="fill: none; stroke: rgb(38, 50, 56); stroke-linecap: round; stroke-linejoin: round; stroke-width: 0.5px; transform-origin: 319.255px 399.605px;" id="el526ksgshg7c" class="animable"></path><path d="M317.79,409.92a51.25,51.25,0,0,1,7.5-4c3.54-1.42,4-1.59,4-1.59" style="fill: none; stroke: rgb(38, 50, 56); stroke-linecap: round; stroke-linejoin: round; stroke-width: 0.5px; transform-origin: 323.54px 407.125px;" id="ele6a2szgf8a" class="animable"></path><path d="M306.1,431.66a42.81,42.81,0,0,1,7.57-.31,27.15,27.15,0,0,0,4.52.22" style="fill: none; stroke: rgb(38, 50, 56); stroke-linecap: round; stroke-linejoin: round; stroke-width: 0.5px; transform-origin: 312.145px 431.481px;" id="elvjc1ojgyvxj" class="animable"></path><path d="M309.68,428.24a48.92,48.92,0,0,0,1-7.38,42.59,42.59,0,0,0-.42-7" style="fill: none; stroke: rgb(38, 50, 56); stroke-linecap: round; stroke-linejoin: round; stroke-width: 0.5px; transform-origin: 310.185px 421.05px;" id="elr7rt7qz3rpd" class="animable"></path><path d="M297.93,438.46a12.46,12.46,0,0,0,2.68-5.95c.38-3.31,1.11-7.49,1.37-9.15" style="fill: none; stroke: rgb(38, 50, 56); stroke-linecap: round; stroke-linejoin: round; stroke-width: 0.5px; transform-origin: 299.955px 430.91px;" id="elzsliyd88tgk" class="animable"></path><path d="M114.89,370.8s-2.37-2.47-2.23-9.26.47-10.9.47-10.9,7.19,4,7.3,10.58a84.68,84.68,0,0,1-1.27,14Z" style="fill: #3F4774; transform-origin: 116.542px 362.93px;" id="el35yu0so8m" class="animable"></path><path d="M134.74,381.44s-2.38-2.47-2.23-9.26.47-10.9.47-10.9,7.19,4,7.3,10.58a84.68,84.68,0,0,1-1.27,14Z" style="fill: #3F4774; transform-origin: 136.392px 373.57px;" id="el5vhca35fwgj" class="animable"></path><path d="M119.15,374.81s-2.62-2.21-9.39-1.64-10.85,1.17-10.85,1.17,4.48,6.92,11,6.61a84.92,84.92,0,0,0,13.93-2.16Z" style="fill: #3F4774; transform-origin: 111.375px 377.018px;" id="elonnbt9gdd3" class="animable"></path><path d="M142.72,387.25s-2.84-1.93-9.5-.64-10.67,2.29-10.67,2.29,5.18,6.41,11.66,5.42a84.43,84.43,0,0,0,13.62-3.61Z" style="fill: #3F4774; transform-origin: 135.19px 390.295px;" id="el0hpwekukc2qu" class="animable"></path><path d="M160.66,408.25s-2.37-2.47-9.16-2.62-10.91,0-10.91,0,3.72,7.36,10.26,7.74a84.57,84.57,0,0,0,14.08-.67Z" style="fill: #3F4774; transform-origin: 152.76px 409.494px;" id="elx3euz76uqb" class="animable"></path><path d="M165.38,413.06s-2.7-2.12-3.53-8.86-1.08-10.86-1.08-10.86,7.69,3,8.73,9.44a84.79,84.79,0,0,1,.74,14.08Z" style="fill: #3F4774; transform-origin: 165.525px 405.1px;" id="eldv0hxi7iyru" class="animable"></path><path d="M182.6,424.18s-2.38-2.47-9.17-2.62-10.91,0-10.91,0,3.72,7.36,10.26,7.74a84.64,84.64,0,0,0,14.09-.67Z" style="fill: #3F4774; transform-origin: 174.695px 425.424px;" id="elcyeb434la9" class="animable"></path><path d="M192.79,439.46s-1.66-3-8.19-4.86S174,431.85,174,431.85s1.74,8.06,8,10.08a84.19,84.19,0,0,0,13.8,2.92Z" style="fill: #3F4774; transform-origin: 184.9px 438.35px;" id="el8dqzha28rc5" class="animable"></path><path d="M114,370.47a98,98,0,0,0,8.31,6.78c8.16,5.76,16,7.05,23.46,12.13s11.46,17.09,20.38,24.29,16.5,8.71,20.84,15.06,13.76,25.8,13.76,25.8" style="fill: none; stroke: rgb(38, 50, 56); stroke-linecap: round; stroke-linejoin: round; stroke-width: 0.5px; transform-origin: 157.375px 412.5px;" id="el1qpykcvp6o5" class="animable"></path><line x1="120.76" y1="376.42" x2="114.28" y2="377.14" style="fill: none; stroke: rgb(38, 50, 56); stroke-linecap: round; stroke-linejoin: round; stroke-width: 0.5px; transform-origin: 117.52px 376.78px;" id="eljwaskxnet" class="animable"></line><line x1="117.42" y1="373.29" x2="116.32" y2="369.01" style="fill: none; stroke: rgb(38, 50, 56); stroke-linecap: round; stroke-linejoin: round; stroke-width: 0.5px; transform-origin: 116.87px 371.15px;" id="elu5ixeu6j8tp" class="animable"></line><path d="M145.25,389.28s-5.38.66-10.84,1.39" style="fill: none; stroke: rgb(38, 50, 56); stroke-linecap: round; stroke-linejoin: round; stroke-width: 0.5px; transform-origin: 139.83px 389.975px;" id="ele914cznld1" class="animable"></path><path d="M139,385.9a69.26,69.26,0,0,1-2.59-13.82" style="fill: none; stroke: rgb(38, 50, 56); stroke-linecap: round; stroke-linejoin: round; stroke-width: 0.5px; transform-origin: 137.705px 378.99px;" id="elia83zgnz7jn" class="animable"></path><path d="M163.91,411.89a53.91,53.91,0,0,0-15.26-2.54" style="fill: none; stroke: rgb(38, 50, 56); stroke-linecap: round; stroke-linejoin: round; stroke-width: 0.5px; transform-origin: 156.28px 410.62px;" id="elf2wuassde3u" class="animable"></path><path d="M167.85,414.78a61,61,0,0,1-2.77-9.67c-.76-4.44-.83-5-.83-5" style="fill: none; stroke: rgb(38, 50, 56); stroke-linecap: round; stroke-linejoin: round; stroke-width: 0.5px; transform-origin: 166.05px 407.445px;" id="elqqcz6eau62t" class="animable"></path><path d="M187,428.73a57.93,57.93,0,0,0-8.28-3,50.54,50.54,0,0,0-8.23-1.28" style="fill: none; stroke: rgb(38, 50, 56); stroke-linecap: round; stroke-linejoin: round; stroke-width: 0.5px; transform-origin: 178.745px 426.59px;" id="el10rfi0hrhubd" class="animable"></path><path d="M195.8,444.85a14.74,14.74,0,0,0-6.2-4.58c-3.71-1.27-8.35-3.16-10.21-3.88" style="fill: none; stroke: rgb(38, 50, 56); stroke-linecap: round; stroke-linejoin: round; stroke-width: 0.5px; transform-origin: 187.595px 440.62px;" id="els3v5rrtupw" class="animable"></path><path d="M169.28,382.13s-1.22-1.81-5.46-2.64-6.84-1.18-6.84-1.18,1.53,5,5.59,6a53.76,53.76,0,0,0,8.91,1.11Z" style="fill: #3F4774; transform-origin: 164.23px 381.865px;" id="elu9qpbpcta7b" class="animable"></path><path d="M173.22,395.91s-1.22-1.81-5.46-2.64-6.85-1.18-6.85-1.18,1.54,5,5.6,6a53.69,53.69,0,0,0,8.9,1.11Z" style="fill: #3F4774; transform-origin: 168.16px 395.645px;" id="el4tyjpyz82ek" class="animable"></path><path d="M171.2,385.32s-1-1.93.25-6.06,2.19-6.59,2.19-6.59,3.7,3.72,2.62,7.75a54.29,54.29,0,0,1-3.22,8.37Z" style="fill: #3F4774; transform-origin: 173.639px 380.73px;" id="ell7jbrevddk" class="animable"></path><path d="M175.75,401.66s-.81-2,.88-6,2.87-6.32,2.87-6.32,3.29,4.09,1.8,8a54.15,54.15,0,0,1-4.09,8Z" style="fill: #3F4774; transform-origin: 178.622px 397.34px;" id="elvltdue1fd9" class="animable"></path><path d="M186.39,415.65s-1.22-1.81-.4-6,1.49-6.78,1.49-6.78,4.07,3.31,3.42,7.43a54.23,54.23,0,0,1-2.32,8.66Z" style="fill: #3F4774; transform-origin: 188.338px 410.915px;" id="elk5sjpg96ib" class="animable"></path><path d="M188.74,419.24s-1-2-5-3.39-6.61-2.14-6.61-2.14.81,5.18,4.69,6.7a53.06,53.06,0,0,0,8.66,2.36Z" style="fill: #3F4774; transform-origin: 183.805px 418.24px;" id="elian04xedgs" class="animable"></path><path d="M196.39,435.93s-1.68-1.4-6-1-6.9.79-6.9.79,2.88,4.38,7.05,4.15a53.57,53.57,0,0,0,8.85-1.44Z" style="fill: #3F4774; transform-origin: 191.44px 437.368px;" id="el0ruvxe7ouzah" class="animable"></path><path d="M193.33,431.45s-1.22-1.81-.39-6.05,1.48-6.79,1.48-6.79,4.07,3.31,3.42,7.43a53,53,0,0,1-2.32,8.67Z" style="fill: #3F4774; transform-origin: 195.281px 426.66px;" id="el0aw07yus8e6" class="animable"></path><path d="M201.45,439.85s-1.64-1.44-1.91-5.75-.29-6.94-.29-6.94,4.78,2.17,5.2,6.32a53.35,53.35,0,0,1,0,9Z" style="fill: #3F4774; transform-origin: 201.945px 434.82px;" id="elnfb90pn3bnn" class="animable"></path><path d="M169.2,381.51a62.45,62.45,0,0,1,3.09,6.09c2.49,5.85,2.23,10.87,4.38,16.22s9.07,9.44,12.35,16,3.18,11.44,6.55,15,14.18,12.05,14.18,12.05" style="fill: none; stroke: rgb(38, 50, 56); stroke-linecap: round; stroke-linejoin: round; stroke-width: 0.5px; transform-origin: 189.475px 414.19px;" id="elhxzm8cyz79i" class="animable"></path><line x1="171.99" y1="386.54" x2="173.3" y2="382.6" style="fill: none; stroke: rgb(38, 50, 56); stroke-linecap: round; stroke-linejoin: round; stroke-width: 0.5px; transform-origin: 172.645px 384.57px;" id="ela1t36sre54a" class="animable"></line><line x1="170.49" y1="384.04" x2="167.97" y2="382.78" style="fill: none; stroke: rgb(38, 50, 56); stroke-linecap: round; stroke-linejoin: round; stroke-width: 0.5px; transform-origin: 169.23px 383.41px;" id="ele6azssmp3u9" class="animable"></line><path d="M176.67,403.51s1.14-3.26,2.33-6.56" style="fill: none; stroke: rgb(38, 50, 56); stroke-linecap: round; stroke-linejoin: round; stroke-width: 0.5px; transform-origin: 177.835px 400.23px;" id="elps7nwt97kqt" class="animable"></path><path d="M175.41,399.17a43.56,43.56,0,0,0-8.25-3.48" style="fill: none; stroke: rgb(38, 50, 56); stroke-linecap: round; stroke-linejoin: round; stroke-width: 0.5px; transform-origin: 171.285px 397.43px;" id="elrs51y8ciboo" class="animable"></path><path d="M188.21,418.17a34.21,34.21,0,0,1,.49-9.84" style="fill: none; stroke: rgb(38, 50, 56); stroke-linecap: round; stroke-linejoin: round; stroke-width: 0.5px; transform-origin: 188.378px 413.25px;" id="el8f3mwpaxt7c" class="animable"></path><path d="M189.48,421a38.84,38.84,0,0,0-5.65-3c-2.66-1.07-3-1.2-3-1.2" style="fill: none; stroke: rgb(38, 50, 56); stroke-linecap: round; stroke-linejoin: round; stroke-width: 0.5px; transform-origin: 185.155px 418.9px;" id="elk6vgs4lurd" class="animable"></path><path d="M198.26,437.34a32.29,32.29,0,0,0-5.69-.23,20.52,20.52,0,0,1-3.4.17" style="fill: none; stroke: rgb(38, 50, 56); stroke-linecap: round; stroke-linejoin: round; stroke-width: 0.5px; transform-origin: 193.715px 437.206px;" id="el9svbsf4a2m" class="animable"></path><path d="M195.57,434.77a36.51,36.51,0,0,1-.75-5.55,32.78,32.78,0,0,1,.32-5.29" style="fill: none; stroke: rgb(38, 50, 56); stroke-linecap: round; stroke-linejoin: round; stroke-width: 0.5px; transform-origin: 195.192px 429.35px;" id="elmgp0rc4xon" class="animable"></path><path d="M204.4,442.45a9.38,9.38,0,0,1-2-4.47c-.28-2.48-.83-5.62-1-6.88" style="fill: none; stroke: rgb(38, 50, 56); stroke-linecap: round; stroke-linejoin: round; stroke-width: 0.5px; transform-origin: 202.9px 436.775px;" id="elekb5qw0zn2o" class="animable"></path></g><g id="freepik--Balance--inject-62" class="animable" style="transform-origin: 250.62px 250.46px;"><path d="M257.15,111.52H217.51a100.62,100.62,0,0,0-51.41,14.2l-5.88,3.49a103.54,103.54,0,0,0-33.6,32.24l-6.23,9.49a18.65,18.65,0,0,1-15.56,8.54H81.44a2.33,2.33,0,0,0-2.33,2.32h0a2.33,2.33,0,0,0,2.33,2.33h25a23.9,23.9,0,0,0,18.29-8.63l9.93-11.8a102.51,102.51,0,0,1,33.6-26.25h0a100.46,100.46,0,0,1,43.83-10.1h43.27Z" style="fill: #3F4774; transform-origin: 168.13px 147.825px;" id="el2opbqkgljyb" class="animable"></path><path d="M244.23,111.52h39.64a100.62,100.62,0,0,1,51.41,14.2l5.88,3.49a103.54,103.54,0,0,1,33.6,32.24l6.23,9.49a18.65,18.65,0,0,0,15.56,8.54h23.39a2.33,2.33,0,0,1,2.33,2.32h0a2.33,2.33,0,0,1-2.33,2.33h-25a23.9,23.9,0,0,1-18.29-8.63l-9.93-11.8a102.51,102.51,0,0,0-33.6-26.25h0a100.46,100.46,0,0,0-43.83-10.1H246Z" style="fill: #3F4774; transform-origin: 333.25px 147.825px;" id="elgqfje5rnocj" class="animable"></path><g id="elgjpertnoy1e" class=""><circle cx="252" cy="120.5" r="22.48" style="fill: rgb(163, 163, 163); transform-origin: 252px 120.5px; transform: rotate(-9.53deg);" class="animable" id="elcgnxx6y1s3p"></circle></g><rect x="221.7" y="404.72" width="60.61" height="13.24" rx="5.3" style="fill: rgb(163, 163, 163); transform-origin: 252.005px 411.34px;" id="eltpbt12plzdi" class="animable"></rect><path d="M286.77,372.35l-2.13-4.44a99,99,0,0,1-9.08-31.18L259.63,173.46l-5.33-.36v-.3L252,173l-2.3-.15v.3l-5.33.36L228.44,336.73a99,99,0,0,1-9.08,31.18l-2.13,4.44a26.45,26.45,0,0,0,3.34,28.19l3.94,4.84h55l3.94-4.84A26.45,26.45,0,0,0,286.77,372.35Z" style="fill: rgb(163, 163, 163); transform-origin: 252.004px 289.09px;" id="el9bdgejlopkh" class="animable"></path><path d="M161.3,414.65H342.7a17.21,17.21,0,0,1,17.21,17.21v7.28a0,0,0,0,1,0,0H144.09a0,0,0,0,1,0,0v-7.28A17.21,17.21,0,0,1,161.3,414.65Z" style="fill: rgb(163, 163, 163); transform-origin: 252px 426.895px;" id="elhsxxo5yojn" class="animable"></path><path d="M132.2,435.06H371.8a19.71,19.71,0,0,1,19.71,19.71v3.11a0,0,0,0,1,0,0h-279a0,0,0,0,1,0,0v-3.11A19.71,19.71,0,0,1,132.2,435.06Z" style="fill: rgb(163, 163, 163); transform-origin: 252.01px 446.47px;" id="elacgap9qsgu" class="animable"></path><path d="M246.57,117.85h10.86l10.95-32.14c2.36-6.92-.59-15.58-5.31-15.58H240.93c-4.72,0-7.67,8.66-5.31,15.58Z" style="fill: rgb(163, 163, 163); transform-origin: 252px 93.99px;" id="ela8ueq6kpteu" class="animable"></path><path d="M257.43,117.14H246.57l-10.95,32.13c-2.36,6.93.59,15.58,5.31,15.58h22.14c4.72,0,7.67-8.65,5.31-15.58Z" style="fill: rgb(163, 163, 163); transform-origin: 252px 140.995px;" id="elmvvof06mfnd" class="animable"></path><ellipse cx="252" cy="56.86" rx="16.72" ry="13.82" style="fill: rgb(163, 163, 163); transform-origin: 252px 56.86px;" id="elyjqfmk0dtqf" class="animable"></ellipse><path d="M257.3,125.79H246.7a5.29,5.29,0,0,1-5.29-5.29h0a5.29,5.29,0,0,1,5.29-5.3h10.6a5.29,5.29,0,0,1,5.29,5.3h0A5.29,5.29,0,0,1,257.3,125.79Z" style="fill: #3F4774; transform-origin: 252px 120.495px;" id="elprqy3aqj0oq" class="animable"></path><rect x="237.55" y="163.53" width="28.91" height="13.24" rx="5.3" style="fill: rgb(163, 163, 163); transform-origin: 252.005px 170.15px;" id="elbdga4e8dnz" class="animable"></rect><polygon points="96.31 182.63 53.56 289.56 139.06 289.56 96.31 182.63" style="fill: none; stroke: rgb(163, 163, 163); stroke-linecap: round; stroke-linejoin: round; transform-origin: 96.31px 236.095px;" id="elbna6f3bcp6" class="animable"></polygon><line x1="96.31" y1="182.63" x2="96.31" y2="291.02" style="fill: none; stroke: rgb(163, 163, 163); stroke-linecap: round; stroke-linejoin: round; transform-origin: 96.31px 236.825px;" id="ela8dgx6ausl" class="animable"></line><path d="M49.33,293.57v5.05a12.12,12.12,0,0,0,12.12,12.12h69.71a12.11,12.11,0,0,0,12.12-12.12v-5.05Z" style="fill: #3F4774; transform-origin: 96.305px 302.155px;" id="elkvs60gyopvc" class="animable"></path><path d="M144,289H48.59A2.59,2.59,0,0,0,46,291.55h0a2.6,2.6,0,0,0,2.59,2.6H144a2.6,2.6,0,0,0,2.59-2.6h0A2.59,2.59,0,0,0,144,289Z" style="fill: #3F4774; transform-origin: 96.295px 291.575px;" id="elywq67zthpqc" class="animable"></path><polygon points="404.93 182.63 362.18 289.56 447.68 289.56 404.93 182.63" style="fill: none; stroke: rgb(163, 163, 163); stroke-linecap: round; stroke-linejoin: round; transform-origin: 404.93px 236.095px;" id="elpl2eiow1g1o" class="animable"></polygon><line x1="404.93" y1="182.63" x2="404.93" y2="291.02" style="fill: none; stroke: rgb(163, 163, 163); stroke-linecap: round; stroke-linejoin: round; transform-origin: 404.93px 236.825px;" id="elwrgl6hsaq4" class="animable"></line><path d="M358,293.57v5.05a12.12,12.12,0,0,0,12.13,12.12h69.71a12.12,12.12,0,0,0,12.12-12.12v-5.05Z" style="fill: #3F4774; transform-origin: 404.98px 302.155px;" id="el9oaa4ab7inm" class="animable"></path><path d="M452.64,289H357.22a2.59,2.59,0,0,0-2.59,2.59h0a2.6,2.6,0,0,0,2.59,2.6h95.42a2.6,2.6,0,0,0,2.6-2.6h0A2.59,2.59,0,0,0,452.64,289Z" style="fill: #3F4774; transform-origin: 404.935px 291.595px;" id="el9f51betb7f" class="animable"></path></g><g id="freepik--Character--inject-62" class="animable" style="transform-origin: 220.756px 289.518px;"><path d="M203.15,121.92A24.39,24.39,0,0,0,187.8,132.5c-6.28,9.3-1.67,29.35-1.67,34.24s.23,33.48.23,33.48H231s-1.4-53.94-1.4-57.43-.92-14.65-8.6-19.07S203.15,121.92,203.15,121.92Z" style="fill: rgb(38, 50, 56); stroke: rgb(38, 50, 56); stroke-linecap: round; stroke-linejoin: round; transform-origin: 207.749px 160.685px;" id="elnsqgnfchir" class="animable"></path><path d="M218.91,126.9s-12,12.44-21.36,18.46-12.44,7.88-12.44,7.88" style="fill: none; stroke: rgb(102, 102, 102); stroke-linecap: round; stroke-linejoin: round; transform-origin: 202.01px 140.07px;" id="el4zamu5zib5g" class="animable"></path><path d="M212.48,122.75S199.21,142,187,149.5" style="fill: none; stroke: rgb(102, 102, 102); stroke-linecap: round; stroke-linejoin: round; transform-origin: 199.74px 136.125px;" id="eld99vm05dlvd" class="animable"></path><path d="M201.08,124.41s-8.72,17.83-15.77,22" style="fill: none; stroke: rgb(102, 102, 102); stroke-linecap: round; stroke-linejoin: round; transform-origin: 193.195px 135.41px;" id="elb88kixrx5xl" class="animable"></path><line x1="194.23" y1="156.14" x2="186.97" y2="159.67" style="fill: none; stroke: rgb(102, 102, 102); stroke-linecap: round; stroke-linejoin: round; transform-origin: 190.6px 157.905px;" id="elfod6ndhnu2n" class="animable"></line><line x1="190.91" y1="158.63" x2="190.91" y2="184.76" style="fill: none; stroke: rgb(102, 102, 102); stroke-linecap: round; stroke-linejoin: round; transform-origin: 190.91px 171.695px;" id="ellqw2pw8jffk" class="animable"></line><path d="M196.38,440.86l-2.13,6.81s-8.72,5.74-8.93,6.59-.43,2.34-.43,2.34a2.13,2.13,0,0,0,2.13,1.28h22.12s.85-4.89.43-7.23-1.49-6.38-1.49-6.38l-.21-3.55Z" style="fill: rgb(38, 50, 56); stroke: rgb(38, 50, 56); stroke-linecap: round; stroke-linejoin: round; transform-origin: 197.288px 449.304px;" id="el2n764w2xge9" class="animable"></path><path d="M248.28,440.51s10.21,10.21,10.85,10.42l13,4.47s.64,1.7-.21,2.13-14.47.42-18.09.21-8.51-3.4-10-4a7.17,7.17,0,0,0-2.56-.64v3.62H231.05s-.42-7-.21-9.79a20.51,20.51,0,0,1,1.91-6.17Z" style="fill: rgb(38, 50, 56); stroke: rgb(38, 50, 56); stroke-linecap: round; stroke-linejoin: round; transform-origin: 251.571px 449.196px;" id="eldkvgkzf1xgt" class="animable"></path><path d="M259.48,363.24c0-1.57-9-78.58-9-78.58L221,265.38l-37.37,16.53,1.18,13.37,5.51,72.39,1.29,56.25-1,12.44-1,5.72,1,6.72,19.16.34.25-9.37,4.7-76.43L221,305.51l12.09,58.71-2.66,81.57,24.16.54s.55-.38.87-5.72c.09-1.5-2.74-8.41-2.64-10.2C254.21,407.13,259.48,364.41,259.48,363.24Z" style="fill: rgb(105, 105, 105); stroke: rgb(38, 50, 56); stroke-linecap: round; stroke-linejoin: round; transform-origin: 221.555px 357.26px;" id="el84y99vysu42" class="animable"></path><line x1="201.61" y1="400.2" x2="201.66" y2="405.11" style="fill: none; stroke: rgb(38, 50, 56); stroke-linecap: round; stroke-linejoin: round; transform-origin: 201.635px 402.655px;" id="el6ejrhon690o" class="animable"></line><line x1="200.72" y1="306.74" x2="201.57" y2="395.49" style="fill: none; stroke: rgb(38, 50, 56); stroke-linecap: round; stroke-linejoin: round; transform-origin: 201.145px 351.115px;" id="eloc5bfnf51l" class="animable"></line><path d="M248.23,307.36s9.42,52.1,9.42,52.93-.28,7.48-.56,11.92" style="fill: none; stroke: rgb(38, 50, 56); stroke-linecap: round; stroke-linejoin: round; transform-origin: 252.94px 339.785px;" id="elz0ujigotr8" class="animable"></path><path d="M205,175.67l-27,17.75,13.91,53.46-12.66,49.29,39.75,11,4.5-19,5,18.75,30.5-7.5-13.75-46.75,6-65.75-37.5-11.25S208,173.67,205,175.67Z" style="fill: rgb(105, 105, 105); stroke: rgb(38, 50, 56); stroke-linecap: round; stroke-linejoin: round; transform-origin: 218.5px 240.976px;" id="elrmnbtg7392j" class="animable"></path><line x1="220.19" y1="248.01" x2="223.51" y2="286.61" style="fill: none; stroke: rgb(38, 50, 56); stroke-linecap: round; stroke-linejoin: round; transform-origin: 221.85px 267.31px;" id="el97ji4cp93w" class="animable"></line><circle cx="216.86" cy="254" r="1.66" style="fill: none; stroke: rgb(38, 50, 56); stroke-linecap: round; stroke-linejoin: round; transform-origin: 216.86px 254px;" id="el0aykq5x8qziq" class="animable"></circle><circle cx="217.86" cy="266.98" r="1.66" style="fill: none; stroke: rgb(38, 50, 56); stroke-linecap: round; stroke-linejoin: round; transform-origin: 217.86px 266.98px;" id="elri5dmolqrjj" class="animable"></circle><path d="M220.52,280a1.67,1.67,0,1,1-1.66-1.66A1.66,1.66,0,0,1,220.52,280Z" style="fill: none; stroke: rgb(38, 50, 56); stroke-linecap: round; stroke-linejoin: round; transform-origin: 218.85px 280.01px;" id="elbs9kvjl8hv9" class="animable"></path><path d="M219.5,244.67l11-32.25-7.25-6,9.75-2s-4.24-17-8.25-25.45l-11-3.3s-5.75-2-8.75,0l-7.09,4.66a146.84,146.84,0,0,0-1.16,15.59c0,7.5.5,14,.5,14l8.5-1.5L202,215.67Z" style="fill: rgb(105, 105, 105); stroke: rgb(38, 50, 56); stroke-linecap: round; stroke-linejoin: round; transform-origin: 214.875px 209.726px;" id="elnwc1mc8216q" class="animable"></path><path d="M251.25,186.92a74.87,74.87,0,0,1,9.75,21c3.75,12.75,7.75,32.5,6.25,35s-11.25,2-14.25.25-5.25-17-5.25-17Z" style="fill: rgb(105, 105, 105); stroke: rgb(38, 50, 56); stroke-linecap: round; stroke-linejoin: round; transform-origin: 257.662px 215.78px;" id="elbi8kmytebww" class="animable"></path><path d="M253.5,230.33l-42.09,1.18L208.67,240a112.23,112.23,0,0,0,21.16,5.5c11.5,1.75,35.17,2.67,38.17.67s-2.25-19-2.25-19" style="fill: rgb(105, 105, 105); stroke: rgb(38, 50, 56); stroke-linecap: round; stroke-linejoin: round; transform-origin: 238.798px 237.236px;" id="elk6frqxy3lye" class="animable"></path><path d="M199.92,166.56s3.07,18.74,3.92,26.91,13.63,28.79,13.63,28.79l2-32,1-22.82a15,15,0,0,1-12.26.51,60.33,60.33,0,0,1-8-3.75Z" style="fill: rgb(255, 255, 255); stroke: rgb(38, 50, 56); stroke-linecap: round; stroke-linejoin: round; transform-origin: 210.195px 193.23px;" id="elfo8d3czkqoe" class="animable"></path><path d="M208.27,167.92a60.33,60.33,0,0,1-8-3.75l-.34,2.39s.4,2.44,1,5.94c4.11,3.44,10.38,7.21,12.88,7.43,1.55.14,4-1.78,6.41-4.2l.37-8.32A15,15,0,0,1,208.27,167.92Z" style="fill: rgb(38, 50, 56); stroke: rgb(38, 50, 56); stroke-linecap: round; stroke-linejoin: round; transform-origin: 210.26px 172.054px;" id="elu2mdc9afjte" class="animable"></path><path d="M217.47,222.26l.85-13.31a23.15,23.15,0,0,1-8.34.1C213.6,216,217.47,222.26,217.47,222.26Z" style="fill: #3F4774; stroke: rgb(38, 50, 56); stroke-linecap: round; stroke-linejoin: round; transform-origin: 214.15px 215.605px;" id="ell0c2e6k61kr" class="animable"></path><path d="M220.14,136,194.42,154.5s1.31,8.52,2.78,12,13,11.15,16.55,11.47,12.12-10.48,13.27-12.78-.82-20.64-.82-20.64Z" style="fill: rgb(255, 255, 255); stroke: rgb(38, 50, 56); stroke-linecap: round; stroke-linejoin: round; transform-origin: 210.9px 156.988px;" id="elti59hdtyh87" class="animable"></path><path d="M214.9,157.45a2.62,2.62,0,0,1-.82,2.46,3.84,3.84,0,0,1-2.46.66" style="fill: none; stroke: rgb(38, 50, 56); stroke-linecap: round; stroke-linejoin: round; transform-origin: 213.285px 159.016px;" id="elupzfdeph1je" class="animable"></path><path d="M208.51,165s2.78,1.8,7.37-.33" style="fill: none; stroke: rgb(38, 50, 56); stroke-linecap: round; stroke-linejoin: round; transform-origin: 212.195px 165.19px;" id="el91vym9xx29p" class="animable"></path><ellipse cx="205.48" cy="152.29" rx="1.06" ry="1.88" style="fill: rgb(38, 50, 56); transform-origin: 205.48px 152.29px;" id="elt39o36u2n5" class="animable"></ellipse><path d="M219.24,151.64c0,1-.48,1.88-1.07,1.88s-1.06-.84-1.06-1.88.48-1.89,1.06-1.89S219.24,150.6,219.24,151.64Z" style="fill: rgb(38, 50, 56); transform-origin: 218.175px 151.635px;" id="ely6vmb33vyw" class="animable"></path><ellipse cx="204.95" cy="151.97" rx="6.11" ry="4.34" style="fill: none; stroke: rgb(38, 50, 56); stroke-linecap: round; stroke-linejoin: round; transform-origin: 204.95px 151.97px;" id="el9ffuva6h7ek" class="animable"></ellipse><path d="M226.86,152c0,2.39-2.74,4.34-6.12,4.34s-6.11-1.95-6.11-4.34,2.74-4.35,6.11-4.35S226.86,149.57,226.86,152Z" style="fill: none; stroke: rgb(38, 50, 56); stroke-linecap: round; stroke-linejoin: round; transform-origin: 220.745px 151.995px;" id="elumwc7xuua19" class="animable"></path><path d="M211.07,152s1.33-2.54,3.56,0" style="fill: none; stroke: rgb(38, 50, 56); stroke-linecap: round; stroke-linejoin: round; transform-origin: 212.85px 151.436px;" id="el0cc4jvy69tl9" class="animable"></path><path d="M215.39,146.8s3.77-3.44,7.53-1.31" style="fill: none; stroke: rgb(38, 50, 56); stroke-linecap: round; stroke-linejoin: round; transform-origin: 219.155px 145.797px;" id="el2s2dtqsu0x8" class="animable"></path><path d="M182.5,191.42s-10.5,3-12.5,7.75-.25,30.25,3,40,5.75,19.25,9.75,19.25,15-8.5,14.5-15-8-33.5-8-35" style="fill: rgb(105, 105, 105); stroke: rgb(38, 50, 56); stroke-linecap: round; stroke-linejoin: round; transform-origin: 183.209px 224.92px;" id="elypyl30k97bj" class="animable"></path><path d="M180.76,224.08c.65-1.47,1.84-3.76,1.93-4s2.5-.84,3.7-.84,6.87,2.13,6.87,2.13a24.14,24.14,0,0,0-2.12-3.22c-.36-.18-4.87-1.28-5.51-1.47a1.79,1.79,0,0,1-1.19-1.65c0-.73,1-.36,1-.36l8.25.75,9,13.25,10.93,2.71-3.85,8.82-8.62-4.32a18.17,18.17,0,0,1-6.25-1.38c-2.76-1.28-4.41-4.59-5.14-5.23s-7.81-1.38-8.09-1.38-1.65,1.1-1.83.74A11.47,11.47,0,0,1,180.76,224.08Z" style="fill: rgb(255, 255, 255); stroke: rgb(38, 50, 56); stroke-linecap: round; stroke-linejoin: round; transform-origin: 196.73px 227.388px;" id="elwpvpcoga9ep" class="animable"></path><path d="M181.8,222.55s3.47-.62,4.09-.62a37.4,37.4,0,0,1,5.58,2.36" style="fill: rgb(255, 255, 255); stroke: rgb(38, 50, 56); stroke-linecap: round; stroke-linejoin: round; transform-origin: 186.635px 223.11px;" id="elpi8xrh8us4g" class="animable"></path><path d="M180.18,225.65s4.1-1,4.72-1,5.95,2,5.95,2" style="fill: rgb(255, 255, 255); stroke: rgb(38, 50, 56); stroke-linecap: round; stroke-linejoin: round; transform-origin: 185.515px 225.65px;" id="elmlg4frem11q" class="animable"></path><path d="M190,235.92l52.5-13,9-13.25,8.25-.75s1-.38,1,.36a1.79,1.79,0,0,1-1.2,1.65c-.64.19-5.14,1.29-5.51,1.47a24,24,0,0,0-2.11,3.22s5.67-2.13,6.87-2.13,3.6.56,3.69.84,1.29,2.57,1.93,4a11.72,11.72,0,0,1,.92,4.5c-.18.37-1.56-.73-1.84-.73s-7.35.73-8.08,1.38-2.39,3.95-5.14,5.23a18.21,18.21,0,0,1-6.25,1.38s-47.86,24-48.13,24.07-8.18,4.68-11.67,4.5-4.31-2.12-5.51-4.6" style="fill: rgb(105, 105, 105); stroke: rgb(38, 50, 56); stroke-linecap: round; stroke-linejoin: round; transform-origin: 222.03px 233.744px;" id="el5lqe494mx8j" class="animable"></path><path d="M264.44,218.37c-.64-1.47-1.84-3.76-1.93-4s-2.5-.84-3.69-.84-6.87,2.13-6.87,2.13a24,24,0,0,1,2.11-3.22c.37-.18,4.87-1.28,5.51-1.47a1.79,1.79,0,0,0,1.2-1.65c0-.74-1-.36-1-.36l-8.25.75-9,13.25-10.93,2.7,3.86,8.83,8.62-4.32a18.21,18.21,0,0,0,6.25-1.38c2.75-1.28,4.4-4.59,5.14-5.23s7.81-1.38,8.08-1.38,1.66,1.1,1.84.73A11.72,11.72,0,0,0,264.44,218.37Z" style="fill: rgb(255, 255, 255); stroke: rgb(38, 50, 56); stroke-linecap: round; stroke-linejoin: round; transform-origin: 248.485px 221.676px;" id="elqclqg4kj9de" class="animable"></path><path d="M263.41,216.84s-3.47-.62-4.09-.62a38.11,38.11,0,0,0-5.59,2.35" style="fill: rgb(255, 255, 255); stroke: rgb(38, 50, 56); stroke-linecap: round; stroke-linejoin: round; transform-origin: 258.57px 217.395px;" id="el5kber6pi24q" class="animable"></path><path d="M265,219.94s-4.09-1-4.71-1-6,2-6,2" style="fill: rgb(255, 255, 255); stroke: rgb(38, 50, 56); stroke-linecap: round; stroke-linejoin: round; transform-origin: 259.645px 219.94px;" id="eltjz5pfk1mtp" class="animable"></path><path d="M229.66,231.6a1.12,1.12,0,1,1-1.11-1.12A1.12,1.12,0,0,1,229.66,231.6Z" style="fill: rgb(255, 255, 255); transform-origin: 228.54px 231.6px;" id="el9eacfe376ho" class="animable"></path><circle cx="224.2" cy="233.09" r="1.12" style="fill: rgb(255, 255, 255); transform-origin: 224.2px 233.09px;" id="elrx5sqn289tg" class="animable"></circle><circle cx="219.86" cy="234.58" r="1.12" style="fill: rgb(255, 255, 255); transform-origin: 219.86px 234.58px;" id="elg09cbrfhdxb" class="animable"></circle></g><g id="freepik--Floor--inject-62" class="animable" style="transform-origin: 250.835px 457.88px;"><line x1="464" y1="457.88" x2="475" y2="457.88" style="fill: rgb(255, 255, 255); stroke: rgb(38, 50, 56); stroke-linecap: round; stroke-linejoin: round; transform-origin: 469.5px 457.88px;" id="el1brccyntyqx" class="animable"></line><line x1="26.67" y1="457.88" x2="451" y2="457.88" style="fill: rgb(255, 255, 255); stroke: rgb(38, 50, 56); stroke-linecap: round; stroke-linejoin: round; transform-origin: 238.835px 457.88px;" id="el93u99a6f5i7" class="animable"></line></g><defs>     <filter id="active" height="200%">         <feMorphology in="SourceAlpha" result="DILATED" operator="dilate" radius="2"></feMorphology>                <feFlood flood-color="#32DFEC" flood-opacity="1" result="PINK"></feFlood>        <feComposite in="PINK" in2="DILATED" operator="in" result="OUTLINE"></feComposite>        <feMerge>            <feMergeNode in="OUTLINE"></feMergeNode>            <feMergeNode in="SourceGraphic"></feMergeNode>        </feMerge>    </filter>    <filter id="hover" height="200%">        <feMorphology in="SourceAlpha" result="DILATED" operator="dilate" radius="2"></feMorphology>                <feFlood flood-color="#ff0000" flood-opacity="0.5" result="PINK"></feFlood>        <feComposite in="PINK" in2="DILATED" operator="in" result="OUTLINE"></feComposite>        <feMerge>            <feMergeNode in="OUTLINE"></feMergeNode>            <feMergeNode in="SourceGraphic"></feMergeNode>        </feMerge>            <feColorMatrix type="matrix" values="0   0   0   0   0                0   1   0   0   0                0   0   0   0   0                0   0   0   1   0 "></feColorMatrix>    </filter></defs></svg>